<?xml version="1.0" encoding="utf-8"?>
<!-- Generator: Adobe Illustrator 23.0.2, SVG Export Plug-In . SVG Version: 6.00 Build 0)  -->
<svg version="1.1" xmlns="http://www.w3.org/2000/svg" xmlns:xlink="http://www.w3.org/1999/xlink" x="0px" y="0px"
	 viewBox="0 0 55.7 55.7" style="enable-background:new 0 0 55.7 55.7;" xml:space="preserve">
<style type="text/css">
	.st0{fill:#86A080;}
	.st1{fill:#FFFFFF;}
	.st2{display:none;}
	.st3{display:inline;fill:#473160;}
</style>
<g id="Capa_1_copy">
	<path class="st0" d="M27.9,0C12.5,0,0,12.5,0,27.9s12.5,27.9,27.9,27.9s27.9-12.5,27.9-27.9C55.7,12.5,43.2,0,27.9,0z"/>
</g>
<g id="Capa_1">
	<path class="st1" d="M40.1,15.6L22.2,33.5L15.6,27c-1.2-1.2-3.2-1.2-4.4,0c-1.2,1.2-1.2,3.2,0,4.4l8.8,8.8c0.6,0.6,1.4,0.9,2.2,0.9
		s1.6-0.3,2.2-0.9L44.5,20c1.2-1.2,1.2-3.2,0-4.4C43.3,14.4,41.3,14.4,40.1,15.6z"/>
</g>
<g id="Layer_3" class="st2">
	<path class="st3" d="M27.9,0C12.5,0,0,12.5,0,27.9s12.5,27.9,27.9,27.9s27.9-12.5,27.9-27.9C55.7,12.5,43.2,0,27.9,0z M27.9,51.2
		C15,51.2,4.5,40.7,4.5,27.9C4.5,15,15,4.5,27.9,4.5S51.2,15,51.2,27.9S40.7,51.2,27.9,51.2z"/>
</g>
</svg>
