<svg id="Layer_1" data-name="Layer 1" xmlns="http://www.w3.org/2000/svg" viewBox="0 0 60 60"><defs><style>.cls-1{fill:#fff;}</style></defs><title>execution</title><path class="cls-1" d="M43.72,26.79l-2.14-.36a12.75,12.75,0,0,0-.86-2.09L42,22.57a1.88,1.88,0,0,0-.2-2.43l-1.91-1.9A1.88,1.88,0,0,0,37.44,18L35.67,19.3a11.29,11.29,0,0,0-2.16-.89l-.36-2.12a1.89,1.89,0,0,0-1.86-1.58H28.6a1.9,1.9,0,0,0-1.87,1.58l-.37,2.17a11.39,11.39,0,0,0-2.07.88l-1.76-1.27a1.88,1.88,0,0,0-2.43.21l-1.91,1.9A1.87,1.87,0,0,0,18,22.61l1.28,1.8a11.89,11.89,0,0,0-.85,2.09l-2.12.35a1.9,1.9,0,0,0-1.58,1.87v2.69a1.89,1.89,0,0,0,1.58,1.86l2.17.37a11.19,11.19,0,0,0,.88,2.08l-1.26,1.75a1.87,1.87,0,0,0,.2,2.43l1.91,1.91a1.88,1.88,0,0,0,2.42.2l1.8-1.28a11.94,11.94,0,0,0,2,.84l.35,2.14a1.9,1.9,0,0,0,1.87,1.58h2.69a1.89,1.89,0,0,0,1.87-1.58l.36-2.14a12.79,12.79,0,0,0,2.09-.87L37.43,42a1.86,1.86,0,0,0,1.09.35h0a1.88,1.88,0,0,0,1.34-.56l1.9-1.9A1.9,1.9,0,0,0,42,37.43L40.7,35.65a11.7,11.7,0,0,0,.86-2.08l2.15-.36a1.89,1.89,0,0,0,1.58-1.87V28.66A1.86,1.86,0,0,0,43.72,26.79Zm-.14,4.55a.16.16,0,0,1-.14.17L40.75,32a.87.87,0,0,0-.69.63A10.12,10.12,0,0,1,39,35.27a.87.87,0,0,0,0,.94l1.58,2.22a.18.18,0,0,1,0,.22l-1.9,1.9a.2.2,0,0,1-.13.05.14.14,0,0,1-.09,0L36.21,39a.86.86,0,0,0-.94,0,9.93,9.93,0,0,1-2.67,1.11.87.87,0,0,0-.64.69l-.45,2.69a.16.16,0,0,1-.17.14H28.66a.16.16,0,0,1-.17-.14L28,40.75a.87.87,0,0,0-.63-.69A10.47,10.47,0,0,1,24.79,39a.84.84,0,0,0-.43-.11.81.81,0,0,0-.5.16l-2.24,1.59-.09,0a.17.17,0,0,1-.12,0L19.5,38.7a.17.17,0,0,1,0-.21l1.57-2.21a.87.87,0,0,0,0-.94A10,10,0,0,1,20,32.67a.89.89,0,0,0-.69-.64l-2.7-.46a.15.15,0,0,1-.14-.16V28.72a.17.17,0,0,1,.14-.17l2.66-.44a.88.88,0,0,0,.7-.64A10.13,10.13,0,0,1,21,24.78a.85.85,0,0,0-.05-.93l-1.59-2.23a.18.18,0,0,1,0-.22l1.91-1.9a.15.15,0,0,1,.12-.06.13.13,0,0,1,.09,0l2.21,1.57a.87.87,0,0,0,.94,0A10,10,0,0,1,27.35,20a.86.86,0,0,0,.63-.69l.46-2.7a.18.18,0,0,1,.17-.14H31.3a.18.18,0,0,1,.17.14l.44,2.66a.87.87,0,0,0,.64.7,10.26,10.26,0,0,1,2.74,1.12.87.87,0,0,0,.94,0l2.2-1.59.1,0a.17.17,0,0,1,.12.05l1.91,1.9a.18.18,0,0,1,0,.22L39,23.79a.86.86,0,0,0,0,.94,9.93,9.93,0,0,1,1.11,2.67.86.86,0,0,0,.69.64l2.68.45a.16.16,0,0,1,.14.17v2.68Z"/><path class="cls-1" d="M30,23.4A6.6,6.6,0,1,0,36.6,30,6.61,6.61,0,0,0,30,23.4Zm0,11.47A4.88,4.88,0,1,1,34.88,30,4.87,4.87,0,0,1,30,34.87Z"/></svg>