<?xml version="1.0" encoding="utf-8"?>
<!-- Generator: Adobe Illustrator 22.1.0, SVG Export Plug-In . SVG Version: 6.00 Build 0)  -->
<svg version="1.1" id="Layer_1" xmlns="http://www.w3.org/2000/svg" xmlns:xlink="http://www.w3.org/1999/xlink" x="0px" y="0px"
	 viewBox="0 0 512 512" style="enable-background:new 0 0 512 512;" xml:space="preserve">
<style type="text/css">
	.st0{display:none;fill:#323B93;}
	.st1{fill:#FFFFFF;}
</style>
<path class="st0" d="M241.2,359H302v60.8h-60.8V359z M362.9,146c16.8,0,30.4,13.6,30.4,30.4v91.3L302,328.6h-60.8v-30.4l91.3-60.8
	V207H180.3v-61H362.9z M271.6,69.9c-52.8,0-102.5,20.6-139.8,57.9s-57.9,87-57.9,139.8s20.6,102.5,57.9,139.8s87,57.9,139.8,57.9
	s102.5-20.6,139.8-57.9s57.9-87,57.9-139.8s-20.6-102.5-57.9-139.8S324.4,69.9,271.6,69.9z M271.6,24.3L271.6,24.3
	C406,24.3,515,133.3,515,267.7S406,511.1,271.6,511.1S28.2,402.1,28.2,267.7S137.2,24.3,271.6,24.3z"/>
<title></title>
<g id="icomoon-ignore">
</g>
<path class="st1" d="M226,347.6h60.8v60.8H226V347.6z M347.7,134.6c16.8,0,30.4,13.6,30.4,30.4v91.3l-91.3,60.8H226v-30.4l91.3-60.8
	v-30.4H165.1v-60.8L347.7,134.6L347.7,134.6z M256.4,58.5c-52.8,0-102.5,20.6-139.8,57.9s-57.9,87-57.9,139.8S79.3,358.7,116.6,396
	s87,57.9,139.8,57.9s102.5-20.6,139.8-57.9s57.9-87,57.9-139.8s-20.6-102.5-57.9-139.8S309.2,58.5,256.4,58.5z M256.4,12.9
	L256.4,12.9c134.4,0,243.4,109,243.4,243.4s-109,243.4-243.4,243.4S13,390.7,13,256.3S122,12.9,256.4,12.9z"/>
</svg>
