<?xml version="1.0" encoding="utf-8"?>
<!-- Generator: Adobe Illustrator 23.0.1, SVG Export Plug-In . SVG Version: 6.00 Build 0)  -->
<svg version="1.1" id="Layer_1" xmlns="http://www.w3.org/2000/svg" xmlns:xlink="http://www.w3.org/1999/xlink" x="0px" y="0px"
	 viewBox="0 0 512 512" style="enable-background:new 0 0 512 512;" xml:space="preserve">
<style type="text/css">
	.st0{display:none;fill:#323B93;}
	.st1{fill:#F9F9F9;}
</style>
<path class="st0" d="M241.2,359H302v60.8h-60.8V359z M362.9,146c16.8,0,30.4,13.6,30.4,30.4v91.3L302,328.6h-60.8v-30.4l91.3-60.8
	V207H180.3v-61H362.9z M271.6,69.9c-52.8,0-102.5,20.6-139.8,57.9s-57.9,87-57.9,139.8s20.6,102.5,57.9,139.8s87,57.9,139.8,57.9
	s102.5-20.6,139.8-57.9s57.9-87,57.9-139.8s-20.6-102.5-57.9-139.8S324.4,69.9,271.6,69.9z M271.6,24.3L271.6,24.3
	C406,24.3,515,133.3,515,267.7S406,511.1,271.6,511.1S28.2,402.1,28.2,267.7S137.2,24.3,271.6,24.3z"/>
<title></title>
<g id="icomoon-ignore">
</g>
<path class="st1" d="M511.8,256c0,141.3-114.5,255.8-255.8,255.8S0.2,397.3,0.2,256S114.7,0.2,256,0.2S511.8,114.7,511.8,256z
	 M230.8,384.1h51.1V333h-51.1L230.8,384.1L230.8,384.1z M333,154H179.6v51.1h127.9v25.5l-76.7,51.1v25.5h51.1l76.7-51.1v-76.7
	C358.6,165.4,347.2,154,333,154L333,154z M373.8,138.7c31.3,31.3,48.7,73.1,48.7,117.5s-17.3,86.1-48.7,117.5s-73.1,48.7-117.5,48.7
	s-86.1-17.3-117.5-48.7s-48.7-73.1-48.7-117.5s17.3-86.1,48.7-117.5S211.9,90,256.3,90S342.4,107.3,373.8,138.7z M51.8,256.2
	c0,113,91.6,204.6,204.6,204.6S461,369.2,461,256.2S369.3,51.7,256.3,51.7l0,0C143.4,51.7,51.8,143.3,51.8,256.2z"/>
</svg>
