<?xml version="1.0" encoding="utf-8"?>
<!-- Generator: Adobe Illustrator 22.1.0, SVG Export Plug-In . SVG Version: 6.00 Build 0)  -->
<svg version="1.1" id="Layer_1" xmlns="http://www.w3.org/2000/svg" xmlns:xlink="http://www.w3.org/1999/xlink" x="0px" y="0px"
	 viewBox="0 0 16 16" style="enable-background:new 0 0 16 16;" xml:space="preserve">
<style type="text/css">
	.st0{fill:#898989;}
</style>
<path class="st0" d="M14.9,7.8l-2.4-2.4C12.2,5.1,12,5.2,12,5.6V7H9V4h1.4c0.4,0,0.5-0.2,0.2-0.5L8.2,1.1C8.1,1,7.9,1,7.8,1.1
	L5.4,3.5C5.1,3.8,5.2,4,5.6,4H7v3H4V5.6c0-0.4-0.2-0.5-0.5-0.2L1.1,7.8C1,7.9,1,8.1,1.1,8.3l2.4,2.4C3.8,10.9,4,10.8,4,10.4V9h3v3
	H5.6c-0.4,0-0.5,0.2-0.2,0.5l2.4,2.4c0.1,0.1,0.4,0.1,0.5,0l2.4-2.4c0.3-0.3,0.2-0.5-0.2-0.5H9V9h3v1.4c0,0.4,0.2,0.5,0.5,0.2
	l2.4-2.4C15,8.1,15,7.9,14.9,7.8z"/>
</svg>
