<svg id="Layer_1" data-name="Layer 1" xmlns="http://www.w3.org/2000/svg" viewBox="0 0 60 60"><defs><style>.cls-1{fill:#fff;}</style></defs><title>preparation</title><path class="cls-1" d="M46.68,44.46H16.32a1.14,1.14,0,0,0-1.13,1.14,1.16,1.16,0,0,0,1.13,1.14H46.7a1.15,1.15,0,0,0,1.14-1.14A1.17,1.17,0,0,0,46.68,44.46Z"/><path class="cls-1" d="M15.19,34.39l0,5.41a1.18,1.18,0,0,0,.33.83,1.12,1.12,0,0,0,.81.33l5.38,0a1.08,1.08,0,0,0,.8-.34L41.07,22a1.16,1.16,0,0,0,0-1.64L35.74,15a1.15,1.15,0,0,0-1.63,0l-3.72,3.74L15.52,33.59A1.23,1.23,0,0,0,15.19,34.39ZM34.94,17.44l3.75,3.74-2.11,2.11-3.75-3.74ZM17.49,34.89l13.7-13.71,3.75,3.75L21.24,38.61l-3.78,0Z"/></svg>