<svg id="Layer_1" enable-background="new 0 0 512.165 512.165" height="512" viewBox="0 0 512.165 512.165" width="512" xmlns="http://www.w3.org/2000/svg"><g><path d="m48.923 462.33 60.606 4.61 41.019 45.225 90.404-184.161-98.344-56.919z" fill="#ff6326"/><path d="m369.557 271.085-98.344 56.919 90.404 184.161 41.019-45.225 60.606-4.61z" fill="#ff6326"/><path d="m369.557 271.085-98.344 56.919 90.404 184.161 41.019-45.225 60.606-4.61z" fill="#ff3838"/><path d="m445.554 189.47-31.817-42.243 6.433-52.492-48.676-20.674-20.674-48.677-52.492 6.434-42.243-31.818-42.242 31.818-52.492-6.434-20.674 48.677-48.677 20.674 6.434 52.492-31.817 42.243 31.817 42.242-6.434 52.492 48.677 20.674 20.674 48.677 52.492-6.434 42.242 31.818 42.243-31.818 52.492 6.434 20.674-48.677 48.676-20.674-6.433-52.492z" fill="#ffaf00"/><path d="m445.554 189.47-31.817-42.243 6.433-52.492-48.676-20.674-20.674-48.677-52.492 6.434-42.243-31.818v378.939l42.243-31.818 52.492 6.434 20.674-48.677 48.676-20.674-6.433-52.492z" fill="#ff8e00"/><circle cx="256.085" cy="189.47" fill="#fff16b" r="94.49"/><path d="m350.576 189.47c0-52.186-42.305-94.49-94.49-94.49v188.98c52.185 0 94.49-42.305 94.49-94.49z" fill="#ffd321"/><path d="m256.085 298.96c-60.374 0-109.491-49.117-109.491-109.49 0-60.374 49.117-109.491 109.491-109.491 60.373 0 109.49 49.117 109.49 109.491.001 60.373-49.117 109.49-109.49 109.49zm0-188.981c-43.832 0-79.491 35.659-79.491 79.491 0 43.831 35.659 79.49 79.491 79.49 43.831 0 79.49-35.659 79.49-79.49.001-43.832-35.658-79.491-79.49-79.491z" fill="#ffd321"/><g><path d="m241.085 153.779h30v71.38h-30z" fill="#ffd321"/></g><g fill="#ffaf00"><path d="m256.085 79.979v30c43.831 0 79.49 35.659 79.49 79.491 0 43.831-35.659 79.49-79.49 79.49v30c60.373 0 109.49-49.117 109.49-109.49.001-60.374-49.117-109.491-109.49-109.491z"/><path d="m256.085 153.779h15v71.38h-15z"/></g></g></svg>