<?xml version="1.0" encoding="iso-8859-1"?>
<!-- Generator: Adobe Illustrator 19.0.0, SVG Export Plug-In . SVG Version: 6.00 Build 0)  -->
<svg version="1.1" id="Capa_1" xmlns="http://www.w3.org/2000/svg" xmlns:xlink="http://www.w3.org/1999/xlink" x="0px" y="0px"
	 viewBox="0 0 512 512" style="enable-background:new 0 0 512 512;" xml:space="preserve">
<g>
	<g>
		<path d="M256,0c-8.157,0-14.769,6.613-14.769,14.769v64c0,8.157,6.613,14.769,14.769,14.769s14.769-6.613,14.769-14.769v-64
			C270.769,6.613,264.157,0,256,0z"/>
	</g>
</g>
<g>
	<g>
		<path d="M207.366,88.018l-41.877-41.876c-5.767-5.767-15.119-5.767-20.887,0s-5.768,15.119,0,20.887l41.878,41.876
			c2.884,2.884,6.664,4.326,10.443,4.326c3.779,0,7.56-1.442,10.443-4.326C213.134,103.137,213.134,93.786,207.366,88.018z"/>
	</g>
</g>
<g>
	<g>
		<path d="M367.395,46.142c-5.767-5.767-15.119-5.767-20.887,0l-41.876,41.876c-5.768,5.767-5.768,15.119,0,20.887
			c2.884,2.884,6.664,4.326,10.444,4.326c3.78,0,7.56-1.442,10.443-4.326l41.876-41.876
			C373.163,61.262,373.163,51.91,367.395,46.142z"/>
	</g>
</g>
<g>
	<g>
		<path d="M423.385,398.769H88.615c-24.431,0-44.308,19.876-44.308,44.308v24.615c0,24.431,19.876,44.308,44.308,44.308h334.769
			c24.431,0,44.308-19.876,44.308-44.308v-24.615C467.692,418.646,447.816,398.769,423.385,398.769z"/>
	</g>
</g>
<g>
	<g>
		<path d="M256,329.846c-8.144,0-14.769,6.625-14.769,14.769v24.615h29.538v-24.615C270.769,336.472,264.144,329.846,256,329.846z"
			/>
	</g>
</g>
<g>
	<g>
		<path d="M275.692,123.077h-39.385c-73.294,0-132.923,59.629-132.923,132.923v113.231h108.308v-24.615
			c0-24.431,19.876-44.308,44.308-44.308s44.308,19.876,44.308,44.308v24.615h108.308V256
			C408.615,182.706,348.986,123.077,275.692,123.077z M256,290.462c-24.431,0-44.308-19.876-44.308-44.308
			c0-24.431,19.876-44.308,44.308-44.308s44.308,19.876,44.308,44.308C300.308,270.585,280.431,290.462,256,290.462z"/>
	</g>
</g>
<g>
	<g>
		<path d="M256,231.385c-8.144,0-14.769,6.625-14.769,14.769c0,8.144,6.625,14.769,14.769,14.769s14.769-6.625,14.769-14.769
			C270.769,238.01,264.144,231.385,256,231.385z"/>
	</g>
</g>
<g>
</g>
<g>
</g>
<g>
</g>
<g>
</g>
<g>
</g>
<g>
</g>
<g>
</g>
<g>
</g>
<g>
</g>
<g>
</g>
<g>
</g>
<g>
</g>
<g>
</g>
<g>
</g>
<g>
</g>
</svg>
