<svg xmlns="http://www.w3.org/2000/svg" viewBox="0 0 55.7 55.7"><defs><style>.cls-1{fill:#936b6a;}</style></defs><title>states-draft</title><g id="Layer_7" data-name="Layer 7"><path class="cls-1" d="M27.85,0A27.85,27.85,0,1,0,55.7,27.85,27.88,27.88,0,0,0,27.85,0Zm11.2,32.52a1,1,0,0,1,.35.78,1.07,1.07,0,0,1-.35.78l-5,5a1.07,1.07,0,0,1-.78.35,1,1,0,0,1-.78-.35l-4.67-4.66-4.66,4.66a1.06,1.06,0,0,1-1.57,0l-5-5a1.05,1.05,0,0,1-.34-.78,1,1,0,0,1,.34-.78l4.66-4.67-4.66-4.66a1.08,1.08,0,0,1,0-1.57l5-5a1.08,1.08,0,0,1,1.57,0l4.66,4.66,4.67-4.66a1,1,0,0,1,.78-.34,1.05,1.05,0,0,1,.78.34l5,5a1.06,1.06,0,0,1,0,1.57l-4.66,4.66Z"/></g></svg>