<?xml version="1.0" encoding="utf-8"?>
<!-- Generator: Adobe Illustrator 22.1.0, SVG Export Plug-In . SVG Version: 6.00 Build 0)  -->
<svg version="1.1" id="Calque_1" xmlns="http://www.w3.org/2000/svg" xmlns:xlink="http://www.w3.org/1999/xlink" x="0px" y="0px"
	 viewBox="0 0 113.4 113.4" style="enable-background:new 0 0 113.4 113.4;" xml:space="preserve">
<style type="text/css">
	.st0{fill:#1F497E;}
	.st1{fill:#00497E;}
</style>
<title>favicon</title>
<path class="st0" d="M71.3,10.3H38.2c-3.4,0-5.8-2.2-5.9-5.3c-0.1-3.3,1.9-5.3,5.8-5.3c22.3,0,44.5,0,66.8,0c3.8,0,5.8,2,5.8,5.2
	c-0.1,3.1-2.5,5.3-5.9,5.3H71.3z"/>
<path class="st0" d="M52.5,14.8h34.4c3.3,0,5.6,2.1,5.6,5.2S90.7,25,87.2,25c-23.1,0-46.3,0-69.4,0c-3.4,0-5.4-2-5.4-5
	c0-3.6,1.8-5.3,5.7-5.3L52.5,14.8z"/>
<path class="st1" d="M40.8,30.2c10.4,0,20.8,0,31.2,0c4.1,0,6.5,2,6.5,5.4c0,3.2-2.4,5.2-6.4,5.2c-21,0-42,0-63,0
	c-3.9,0-6.3-2.1-6.3-5.3c0-3.4,2.4-5.3,6.5-5.4C19.8,30.2,30.3,30.2,40.8,30.2z"/>
<path class="st0" d="M43.5,56.3c-7.3,0-12.9,0-20.3,0c-3.7,0-6-2-6-5.2s2.1-5,6-5c13.6,0,27.2,0,40.8,0c3.7,0,6.3,2.1,6.1,5
	c-0.1,3.1-2.5,5.2-6.1,5.2C57.2,56.3,50.3,56.3,43.5,56.3z"/>
<path class="st0" d="M50.5,71.4c-3.8,0-7.7,0-11.6,0c-3.4,0-5.2-1.8-5.2-5.1s1.7-5,5.2-5.1c7.6-0.1,15.2-0.1,22.8,0
	c3.3,0,5.5,2.1,5.4,5.1c-0.1,2.9-2.4,5.2-5.3,5.1c0,0,0,0,0,0C58,71.4,54.3,71.4,50.5,71.4z"/>
<path class="st0" d="M53.1,86.8c-3.3-0.1-6.7-1.9-6.7-5.3c0-4,3.4-5.3,6.6-5.3c2.8,0,5.6,0,8.3,0c2.8,0.1,4.9,2.4,4.8,5.2
	c0,0,0,0,0,0c0,2.8-1.8,5.4-5,5.4"/>
<path class="st0" d="M66.4,90.8c2.4,0,4.4,1.9,4.5,4.3c0,0.1,0,0.3,0,0.4c0,2.8-1.7,5.3-4.7,5.3c-2.4,0-3.7,0-6.1,0
	c-2.7,0.1-5-2.1-5.1-4.8c0-0.1,0-0.1,0-0.2c0-3.2,2.1-5.2,5.3-5.2"/>
<circle class="st0" cx="71.7" cy="108.5" r="5.1"/>
</svg>
